<svg aria-hidden="true" style="width:0;height:0;position:absolute;overflow:hidden" xmlns="http://www.w3.org/2000/svg"><defs><symbol id="arrow-short" viewBox="0 0 19 32"><path fill="none" stroke-linejoin="round" stroke-linecap="round" stroke-width="6.4" d="M3.2 3.2 16 16 3.2 28.8"/></symbol><symbol id="arrow-right" viewBox="0 0 32 32"><path d="m19.414 27.414 10-10a2 2 0 0 0 0-2.828l-10-10a2 2 0 1 0-2.828 2.828L23.172 14H4a2 2 0 1 0 0 4h19.172l-6.586 6.586c-.39.39-.586.902-.586 1.414s.195 1.024.586 1.414a2 2 0 0 0 2.828 0z"/></symbol><symbol id="close" viewBox="0 0 32 32"><path stroke-width="2" d="m2.519 2 26.963 28M2 29.481 30 2.518"/></symbol><symbol id="burger" viewBox="0 0 46 32"><path fill="none" stroke="#d41443" style="stroke:var(--color1,#d41443)" stroke-width="2.286" d="M0 2.286h45.714M0 16h45.714M0 29.714h45.714"/></symbol><symbol id="slider-birds" viewBox="0 0 49 32"><path fill="#e1e1e1" style="fill:var(--color1,#e1e1e1)" d="M35.781 0c2.155 0 4.191.52 6.107 1.561s3.472 2.537 4.67 4.488c1.15 1.951 1.725 4.25 1.725 6.894s-.718 5.225-2.155 7.74c-.48.91-1.342 2.081-2.587 3.512a66.3 66.3 0 0 1-3.592 3.707L35.423 32l-3.234-4.813a24.187 24.187 0 0 0 5.95-4.668l.014-.015c1.724-1.821 2.586-3.49 2.586-5.008 0-.781-.192-1.41-.575-1.886-1.676 1.084-3.544 1.626-5.604 1.626-1.485 0-2.898-.412-4.239-1.236-1.389-.781-2.49-1.821-3.305-3.122-.862-1.258-1.294-2.558-1.294-3.902 0-1.518.503-2.97 1.509-4.358.958-1.387 2.228-2.514 3.808-3.382C32.572.412 34.153 0 35.781 0zM9.987 0c2.155 0 4.191.52 6.107 1.561s3.472 2.536 4.67 4.488c1.15 1.951 1.725 4.25 1.725 6.894 0 1.864-.264 3.534-.79 5.008-.527 1.518-1.437 3.1-2.73 4.748-1.246 1.561-2.419 2.862-3.52 3.902-1.102 1.084-3.018 2.883-5.748 5.398l-3.234-4.813a24.182 24.182 0 0 0 5.949-4.668l.014-.015c1.725-1.821 2.586-3.49 2.586-5.008 0-.781-.191-1.41-.574-1.886-1.677 1.084-3.544 1.626-5.604 1.626-1.485 0-2.898-.412-4.24-1.236-1.388-.781-2.49-1.821-3.304-3.122C.432 11.619 0 10.319 0 8.975c0-1.518.479-2.97 1.437-4.358s2.227-2.514 3.808-3.382C6.778.411 8.359-.001 9.987-.001z"/></symbol><symbol id="facebook" viewBox="0 0 16 32"><path fill="#fff" style="fill:var(--color1,#fff)" d="M14.266 15.97H10.09v15.39H3.762V15.968H.754V10.56h3.008V7.062C3.762 4.558 4.946.64 10.146.64l4.688.019v5.25h-3.402c-.557 0-1.342.282-1.342 1.475v3.184h4.73l-.554 5.4z"/></symbol><symbol id="telegram" viewBox="0 0 40 32"><path fill="#fff" style="fill:var(--color1,#fff)" d="m16.206 20.75-.636 8.34c.908 0 1.302-.366 1.774-.802l4.26-3.8 8.83 6.034c1.62.84 2.76.398 3.196-1.39l5.796-25.346h.002c.514-2.236-.866-3.108-2.444-2.56L2.92 13.398c-2.324.84-2.29 2.052-.396 2.6l8.71 2.528 20.23-11.814c.952-.588 1.816-.264 1.104.326L16.206 20.75z"/></symbol><symbol id="github" viewBox="0 0 32 32"><path fill="#fff" style="fill:var(--color1,#fff)" d="M16 .941C7.728.941.941 7.73.941 16c0 7.059 4.954 13.47 11.53 15.059v-4.982c-.651.144-1.251.147-1.915-.048-.89-.264-1.613-.856-2.149-1.76-.342-.576-.949-1.203-1.581-1.157l-.155-1.758c1.368-.117 2.55.834 3.253 2.014.312.525.672.832 1.133.968.445.131.923.069 1.482-.128.139-1.117.651-1.536 1.037-2.123-3.922-.584-5.485-2.667-6.106-4.309-.822-2.181-.381-4.906 1.072-6.627.029-.032.08-.122.061-.182-.667-2.014.144-3.68.176-3.856.768.227.893-.229 3.341 1.258l.422.254c.176.106.122.045.299.032a12.465 12.465 0 0 1 3.15-.445h.01c1.147.018 2.247.183 3.294.478l-.09-.022.138.014c-.013-.002.037-.01.12-.059 3.056-1.851 2.947-1.246 3.766-1.512.03.176.832 1.869.171 3.856-.088.275 2.651 2.784 1.133 6.811-.621 1.643-2.184 3.723-6.106 4.309.502.766 1.107 1.174 1.104 2.755v6.219c6.576-1.589 11.53-8 11.53-15.059 0-8.272-6.787-15.059-15.059-15.059z"/></symbol><symbol id="icon-quotes" viewBox="0 0 43 32"><path fill="#e1e1e1" style="fill:var(--color1,#e1e1e1)" d="M32.014 0c1.929 0 3.75.52 5.464 1.561s3.107 2.537 4.179 4.488C42.686 8 43.2 10.298 43.2 12.943s-.643 5.225-1.929 7.74c-.429.911-1.2 2.081-2.314 3.512a63.368 63.368 0 0 1-3.214 3.707L31.693 32 28.8 27.187a22.03 22.03 0 0 0 5.336-4.683c1.543-1.821 2.314-3.491 2.314-5.008 0-.78-.171-1.409-.514-1.886a8.359 8.359 0 0 1-5.014 1.626c-1.329 0-2.593-.412-3.793-1.236a8.555 8.555 0 0 1-2.957-3.122c-.771-1.258-1.157-2.558-1.157-3.902 0-1.518.45-2.97 1.35-4.358a10.222 10.222 0 0 1 3.407-3.382C29.143.412 30.558 0 32.015 0zM8.936 0c1.929 0 3.75.52 5.464 1.561s3.107 2.537 4.179 4.488c1.029 1.951 1.543 4.249 1.543 6.894 0 1.864-.236 3.534-.707 5.008-.471 1.518-1.286 3.1-2.443 4.748-1.114 1.561-2.164 2.862-3.15 3.902-.986 1.084-2.7 2.884-5.143 5.398l-2.893-4.813a22.03 22.03 0 0 0 5.336-4.683c1.543-1.821 2.314-3.491 2.314-5.008 0-.78-.171-1.409-.514-1.886a8.359 8.359 0 0 1-5.014 1.626c-1.329 0-2.593-.412-3.793-1.236a8.555 8.555 0 0 1-2.957-3.122C.387 11.619.001 10.319.001 8.975c0-1.518.429-2.97 1.286-4.358S3.28 2.102 4.694 1.235C6.065.411 7.48-.001 8.937-.001z"/></symbol><symbol id="icon-dom" viewBox="0 0 35 32"><path d="M32.64 15.401a1.541 1.541 0 0 0-.129-2.225L17.739.426c-.671-.578-1.745-.566-2.402.027L.515 13.856a1.532 1.532 0 0 0-.071 2.222l.372.382c.617.633 1.613.708 2.224.168l1.108-.979v14.326c0 .879.722 1.591 1.612 1.591h5.778c.89 0 1.612-.712 1.612-1.591V19.952h7.37v10.023c-.013.878.624 1.59 1.515 1.59h6.123c.89 0 1.613-.711 1.613-1.59V15.851l.683.592c.377.328 1.168.065 1.767-.586l.42-.455z"/></symbol><symbol id="icon-icecream" viewBox="0 0 32 32"><path d="M20.804 10.742c1.448-3.62-1.789-4.217-1.789-4.174 1.022-2.556-1.022-4.26-2.896-4.26s-1.789.853-1.789.853 1.022-.213 1.022.596c0 .81-.938.767-1.874 1.704-.938.937-.49.81-.554.81 1.948-.128 3.088 1.885 5.239 1.149-2.13 1.065-2.641-.628-4.941-.713-.298 0-2.002-.33-2.002 2.928 2.492.288 3.578 2.002 6.943 1.619-3.791 1.405-8.54-4.409-9.2 1.959a2.567 2.567 0 0 0 1.021 2.048h11.757c2.342-1.022 1.193-4.732-.937-4.519zM16.072 31 21.4 15.931H10.627L16.072 31z"/></symbol><symbol id="icon-read-more" viewBox="0 0 75 32"><path fill="#d41443" style="fill:var(--color1,#d41443)" d="M4.47 19.636v-7.127h2.617c.57 0 1.039.098 1.405.295.374.19.652.451.835.784.183.326.275.689.275 1.089 0 .434-.115.831-.346 1.191-.224.36-.577.621-1.059.784l1.476 2.983H8.176l-1.324-2.81H5.773v2.81H4.47zm1.303-3.767h1.232c.435 0 .753-.105.957-.316s.305-.489.305-.835c0-.34-.102-.611-.305-.815-.196-.204-.519-.305-.967-.305H5.773v2.271zm7.156 3.89c-.509 0-.961-.109-1.355-.326a2.368 2.368 0 0 1-.92-.905l-.006-.012c-.224-.393-.336-.849-.336-1.364 0-.523.109-.988.326-1.395.224-.407.529-.723.916-.947.393-.231.855-.346 1.385-.346.495 0 .934.109 1.313.326s.676.516.886.896c.217.373.326.791.326 1.252 0 .075-.004.153-.01.234 0 .081-.004.167-.01.255h-3.839c.027.393.163.703.407.927.252.224.553.336.906.336.265 0 .485-.058.662-.173s.315-.274.404-.462l.003-.007h1.324a2.415 2.415 0 0 1-.479.876c-.22.258-.492.464-.8.605l-.014.006a2.545 2.545 0 0 1-1.089.224zm.01-4.236c-.319 0-.601.092-.845.275-.244.177-.4.448-.468.815h2.515c-.02-.332-.143-.597-.367-.794s-.502-.295-.835-.295zm5.362 4.236c-.434 0-.791-.068-1.069-.204a1.48 1.48 0 0 1-.621-.56 1.462 1.462 0 0 1-.204-.749v-.016.001c0-.468.183-.849.55-1.14s.916-.438 1.649-.438h1.283v-.122c0-.346-.098-.601-.295-.764s-.441-.244-.733-.244a1.24 1.24 0 0 0-.692.193.797.797 0 0 0-.367.55h-1.273c.029-.364.162-.693.37-.961l-.003.004c.219-.27.5-.482.821-.616l.014-.005c.34-.149.72-.224 1.14-.224.72 0 1.287.18 1.7.54s.621.869.621 1.527v3.105h-1.11l-.122-.815a1.89 1.89 0 0 1-.624.668l-.007.004c-.265.177-.607.265-1.028.265zm.295-1.019c.374 0 .662-.122.865-.367.211-.244.343-.546.397-.906h-1.11c-.346 0-.593.065-.743.193a.567.567 0 0 0-.224.452v.006c0 .196.075.349.224.458s.346.163.591.163zm6.162 1.019a2.38 2.38 0 0 1-1.273-.346 2.491 2.491 0 0 1-.879-.934l-.006-.013c-.217-.4-.326-.855-.326-1.364s.109-.96.326-1.354a2.417 2.417 0 0 1 2.159-1.283c.38 0 .713.071.998.214s.516.343.692.601v-2.973h1.303v7.331h-1.161l-.143-.723a2.307 2.307 0 0 1-.642.585l-.01.006c-.265.169-.611.255-1.039.255zm.275-1.141c.422 0 .764-.139 1.028-.417.272-.285.407-.648.407-1.089s-.135-.801-.407-1.079c-.265-.285-.607-.428-1.028-.428-.414 0-.756.139-1.028.417s-.407.638-.407 1.079.136.804.407 1.089c.272.285.615.428 1.028.428zm6.472 1.018v-5.05h1.149l.112.682c.163-.244.377-.438.641-.58.26-.141.57-.224.899-.224h.04-.002c.78 0 1.334.302 1.66.906.186-.279.433-.503.722-.657l.011-.005a2.17 2.17 0 0 1 1.018-.244c.659 0 1.164.196 1.517.591s.529.971.529 1.731v2.851h-1.303v-2.729c0-.434-.084-.767-.255-.998-.163-.231-.417-.346-.764-.346-.353 0-.638.129-.855.387-.211.258-.316.618-.316 1.079v2.607h-1.303v-2.729c0-.434-.084-.767-.255-.998s-.431-.346-.784-.346c-.346 0-.628.129-.845.387-.211.258-.316.618-.316 1.079v2.607h-1.302zm11.959.123h-.037c-.473 0-.916-.125-1.299-.343l.013.007a2.538 2.538 0 0 1-.92-.915l-.006-.012c-.224-.4-.336-.862-.336-1.385s.115-.981.345-1.375c.231-.4.54-.713.927-.937.37-.212.814-.336 1.286-.336h.039-.002c.482 0 .916.112 1.303.336.394.224.703.536.927.937.231.393.345.852.345 1.375s-.115.984-.345 1.385c-.222.39-.537.704-.915.92l-.012.006c-.369.211-.81.336-1.281.336h-.033.002zm0-1.131c.339 0 .634-.126.886-.377.251-.258.376-.638.376-1.14s-.125-.879-.376-1.13c-.252-.258-.543-.387-.876-.387h-.01c-.35 0-.665.149-.885.386l-.001.001c-.244.251-.366.628-.366 1.13s.122.882.367 1.14c.251.251.545.377.886.377zm3.751 1.008v-5.05h1.161l.122.947a2.11 2.11 0 0 1 .734-.769l.009-.005a2.096 2.096 0 0 1 1.12-.295v1.375h-.367c-.285 0-.54.044-.764.132s-.4.241-.529.458c-.122.217-.183.519-.183.906v2.301h-1.303zm6.4.123c-.509 0-.96-.109-1.353-.326a2.371 2.371 0 0 1-.921-.905l-.006-.012c-.224-.393-.336-.849-.336-1.364 0-.523.109-.988.327-1.395.224-.407.529-.723.916-.947.393-.231.855-.346 1.385-.346.495 0 .933.109 1.313.326s.675.516.885.896c.218.373.326.791.326 1.252 0 .075-.003.153-.009.234 0 .081-.004.167-.01.255h-3.839c.027.393.162.703.407.927.251.224.553.336.906.336.265 0 .485-.058.662-.173s.315-.274.404-.462l.003-.007h1.324a2.415 2.415 0 0 1-.479.876c-.22.258-.492.464-.8.605l-.014.006c-.32.149-.683.224-1.09.224zm.011-4.236c-.32 0-.601.092-.845.275-.245.177-.401.448-.469.815h2.515c-.02-.332-.143-.597-.367-.794s-.502-.295-.834-.295z"/><path fill="none" stroke="#d41443" style="stroke:var(--color1,#d41443)" stroke-linejoin="round" stroke-linecap="round" stroke-width="1.454" d="m70.266 13.818 3.22 2.909-3.22 2.909"/></symbol><symbol id="read-more" viewBox="0 0 75 32"><path fill="#d41443" style="fill:var(--color1,#d41443)" d="M4.47 19.636v-7.127h2.617c.57 0 1.039.098 1.405.295.374.19.652.451.835.784.183.326.275.689.275 1.089 0 .434-.115.831-.346 1.191-.224.36-.577.621-1.059.784l1.476 2.983H8.176l-1.324-2.81H5.773v2.81H4.47zm1.303-3.767h1.232c.435 0 .753-.105.957-.316s.305-.489.305-.835c0-.34-.102-.611-.305-.815-.196-.204-.519-.305-.967-.305H5.773v2.271zm7.156 3.89c-.509 0-.961-.109-1.355-.326a2.368 2.368 0 0 1-.92-.905l-.006-.012c-.224-.393-.336-.849-.336-1.364 0-.523.109-.988.326-1.395.224-.407.529-.723.916-.947.393-.231.855-.346 1.385-.346.495 0 .934.109 1.313.326s.676.516.886.896c.217.373.326.791.326 1.252 0 .075-.004.153-.01.234 0 .081-.004.167-.01.255h-3.839c.027.393.163.703.407.927.252.224.553.336.906.336.265 0 .485-.058.662-.173s.315-.274.404-.462l.003-.007h1.324a2.415 2.415 0 0 1-.479.876c-.22.258-.492.464-.8.605l-.014.006a2.545 2.545 0 0 1-1.089.224zm.01-4.236c-.319 0-.601.092-.845.275-.244.177-.4.448-.468.815h2.515c-.02-.332-.143-.597-.367-.794s-.502-.295-.835-.295zm5.362 4.236c-.434 0-.791-.068-1.069-.204a1.48 1.48 0 0 1-.621-.56 1.462 1.462 0 0 1-.204-.749v-.016.001c0-.468.183-.849.55-1.14s.916-.438 1.649-.438h1.283v-.122c0-.346-.098-.601-.295-.764s-.441-.244-.733-.244a1.24 1.24 0 0 0-.692.193.797.797 0 0 0-.367.55h-1.273c.029-.364.162-.693.37-.961l-.003.004c.219-.27.5-.482.821-.616l.014-.005c.34-.149.72-.224 1.14-.224.72 0 1.287.18 1.7.54s.621.869.621 1.527v3.105h-1.11l-.122-.815a1.89 1.89 0 0 1-.624.668l-.007.004c-.265.177-.607.265-1.028.265zm.295-1.019c.374 0 .662-.122.865-.367.211-.244.343-.546.397-.906h-1.11c-.346 0-.593.065-.743.193a.567.567 0 0 0-.224.452v.006c0 .196.075.349.224.458s.346.163.591.163zm6.162 1.019a2.38 2.38 0 0 1-1.273-.346 2.491 2.491 0 0 1-.879-.934l-.006-.013c-.217-.4-.326-.855-.326-1.364s.109-.96.326-1.354a2.417 2.417 0 0 1 2.159-1.283c.38 0 .713.071.998.214s.516.343.692.601v-2.973h1.303v7.331h-1.161l-.143-.723a2.307 2.307 0 0 1-.642.585l-.01.006c-.265.169-.611.255-1.039.255zm.275-1.141c.422 0 .764-.139 1.028-.417.272-.285.407-.648.407-1.089s-.135-.801-.407-1.079c-.265-.285-.607-.428-1.028-.428-.414 0-.756.139-1.028.417s-.407.638-.407 1.079.136.804.407 1.089c.272.285.615.428 1.028.428zm6.472 1.018v-5.05h1.149l.112.682c.163-.244.377-.438.641-.58.26-.141.57-.224.899-.224h.04-.002c.78 0 1.334.302 1.66.906.186-.279.433-.503.722-.657l.011-.005a2.17 2.17 0 0 1 1.018-.244c.659 0 1.164.196 1.517.591s.529.971.529 1.731v2.851h-1.303v-2.729c0-.434-.084-.767-.255-.998-.163-.231-.417-.346-.764-.346-.353 0-.638.129-.855.387-.211.258-.316.618-.316 1.079v2.607h-1.303v-2.729c0-.434-.084-.767-.255-.998s-.431-.346-.784-.346c-.346 0-.628.129-.845.387-.211.258-.316.618-.316 1.079v2.607h-1.302zm11.959.123h-.037c-.473 0-.916-.125-1.299-.343l.013.007a2.538 2.538 0 0 1-.92-.915l-.006-.012c-.224-.4-.336-.862-.336-1.385s.115-.981.345-1.375c.231-.4.54-.713.927-.937.37-.212.814-.336 1.286-.336h.039-.002c.482 0 .916.112 1.303.336.394.224.703.536.927.937.231.393.345.852.345 1.375s-.115.984-.345 1.385c-.222.39-.537.704-.915.92l-.012.006c-.369.211-.81.336-1.281.336h-.033.002zm0-1.131c.339 0 .634-.126.886-.377.251-.258.376-.638.376-1.14s-.125-.879-.376-1.13c-.252-.258-.543-.387-.876-.387h-.01c-.35 0-.665.149-.885.386l-.001.001c-.244.251-.366.628-.366 1.13s.122.882.367 1.14c.251.251.545.377.886.377zm3.751 1.008v-5.05h1.161l.122.947a2.11 2.11 0 0 1 .734-.769l.009-.005a2.096 2.096 0 0 1 1.12-.295v1.375h-.367c-.285 0-.54.044-.764.132s-.4.241-.529.458c-.122.217-.183.519-.183.906v2.301h-1.303zm6.4.123c-.509 0-.96-.109-1.353-.326a2.371 2.371 0 0 1-.921-.905l-.006-.012c-.224-.393-.336-.849-.336-1.364 0-.523.109-.988.327-1.395.224-.407.529-.723.916-.947.393-.231.855-.346 1.385-.346.495 0 .933.109 1.313.326s.675.516.885.896c.218.373.326.791.326 1.252 0 .075-.003.153-.009.234 0 .081-.004.167-.01.255h-3.839c.027.393.162.703.407.927.251.224.553.336.906.336.265 0 .485-.058.662-.173s.315-.274.404-.462l.003-.007h1.324a2.415 2.415 0 0 1-.479.876c-.22.258-.492.464-.8.605l-.014.006c-.32.149-.683.224-1.09.224zm.011-4.236c-.32 0-.601.092-.845.275-.245.177-.401.448-.469.815h2.515c-.02-.332-.143-.597-.367-.794s-.502-.295-.834-.295z"/><path fill="none" stroke="#d41443" style="stroke:var(--color1,#d41443)" stroke-linejoin="round" stroke-linecap="round" stroke-width="1.454" d="m70.266 13.818 3.22 2.909-3.22 2.909"/></symbol><symbol id="arrow-short-two" viewBox="0 0 19 32"><path fill="none" stroke="#d41443" style="stroke:var(--color1,#d41443)" stroke-linejoin="round" stroke-linecap="round" stroke-width="6.4" d="M3.2 3.2 16 16 3.2 28.8"/></symbol><symbol id="icon-ice-cream" viewBox="0 0 32 32"><path d="M9.389 5.459c.042-.701.208-1.366.506-2.003s.685-1.181 1.165-1.642A5.426 5.426 0 0 1 12.714.736l.036-.013A5.179 5.179 0 0 1 14.771.32h.025-.001c.733 0 1.427.138 2.086.416s1.235.662 1.731 1.152c.496.49.88 1.056 1.152 1.699l-.144-.013a7.122 7.122 0 0 0-2.558.481l.049-.017a6.6 6.6 0 0 0-1.132.563l.028-.016A8.654 8.654 0 0 0 15 5.318l.012-.01a6.768 6.768 0 0 0-2.629-.531h-.001a6.99 6.99 0 0 0-3.034.7l.042-.018zm9.734 8.128c.17-.637.253-1.238.253-1.808 0-1.133-.256-2.195-.771-3.184s-1.213-1.808-2.099-2.461a5.264 5.264 0 0 1 3.084-.989h.027-.001c.739 0 1.443.144 2.112.429s1.245.672 1.731 1.158c.486.486.874 1.062 1.158 1.731s.429 1.37.429 2.112v.042c0 1.11-.342 2.139-.927 2.989l.012-.018h-5.008zm-11.83 0c-.224-.627-.339-1.229-.339-1.808 0-.586.09-1.158.272-1.712s.442-1.053.778-1.494c.341-.444.727-.83 1.156-1.16l.015-.011a4.913 4.913 0 0 1 1.459-.768l.035-.01a5.358 5.358 0 0 1 1.701-.272h.011-.001c.739 0 1.443.144 2.112.429s1.245.672 1.731 1.158c.486.486.874 1.062 1.158 1.731s.429 1.37.429 2.112c0 .579-.112 1.181-.339 1.808H7.292zM16 31.68a.724.724 0 0 1-.436-.164l.001.001a.949.949 0 0 1-.312-.397l-.002-.006-5.258-13.907h-.797l-1.037-2.413h15.68l-1.037 2.413h-.797l-5.258 13.907a.948.948 0 0 1-.311.401l-.003.002a.723.723 0 0 1-.434.163h-.001z"/></symbol><symbol id="icon-chek-border" viewBox="0 0 34 32"><path d="M30.34 3.556v24.887H3.793V3.556H30.34zm0-3.556H3.793C1.707 0 0 1.6 0 3.556v24.887c0 1.956 1.707 3.556 3.793 3.556H30.34c2.086 0 3.793-1.6 3.793-3.556V3.556C34.133 1.6 32.426 0 30.34 0z"/></symbol><symbol id="close-modal" viewBox="0 0 32 32"><path d="m26.667 7.303-1.97-1.97-7.808 7.808-7.808-7.808-1.97 1.97 7.808 7.808-7.808 7.808 1.97 1.97 7.808-7.808 7.808 7.808 1.97-1.97-7.808-7.808 7.808-7.808z"/></symbol></defs></svg>