<svg aria-hidden="true" style="position: absolute; width: 0; height: 0; overflow: hidden;" version="1.1" xmlns="http://www.w3.org/2000/svg" xmlns:xlink="http://www.w3.org/1999/xlink">
<defs>
<symbol id="arrow-short" viewBox="0 0 19 32">
<path fill="none" stroke-linejoin="round" stroke-linecap="round" stroke-miterlimit="4" stroke-width="6.4" d="M3.2 3.2l12.8 12.8-12.8 12.8"></path>
</symbol>
<symbol id="arrow-right" viewBox="0 0 32 32">
<path d="M19.414 27.414l10-10c0.781-0.781 0.781-2.047 0-2.828l-10-10c-0.781-0.781-2.047-0.781-2.828 0s-0.781 2.047 0 2.828l6.586 6.586h-19.172c-1.105 0-2 0.895-2 2s0.895 2 2 2h19.172l-6.586 6.586c-0.39 0.39-0.586 0.902-0.586 1.414s0.195 1.024 0.586 1.414c0.781 0.781 2.047 0.781 2.828 0z"></path>
</symbol>
<symbol id="close" viewBox="0 0 32 32">
<path stroke-linejoin="miter" stroke-linecap="butt" stroke-miterlimit="4" stroke-width="2" d="M2.519 2l26.963 28"></path>
<path stroke-linejoin="miter" stroke-linecap="butt" stroke-miterlimit="4" stroke-width="2" d="M2 29.481l28-26.963"></path>
</symbol>
<symbol id="burger" viewBox="0 0 46 32">
<path fill="none" stroke="#d41443" style="stroke: var(--color1, #d41443)" stroke-linejoin="miter" stroke-linecap="butt" stroke-miterlimit="4" stroke-width="2.2857" d="M0 2.286h45.714"></path>
<path fill="none" stroke="#d41443" style="stroke: var(--color1, #d41443)" stroke-linejoin="miter" stroke-linecap="butt" stroke-miterlimit="4" stroke-width="2.2857" d="M0 16h45.714"></path>
<path fill="none" stroke="#d41443" style="stroke: var(--color1, #d41443)" stroke-linejoin="miter" stroke-linecap="butt" stroke-miterlimit="4" stroke-width="2.2857" d="M0 29.714h45.714"></path>
</symbol>
<symbol id="slider-birds" viewBox="0 0 49 32">
<path fill="#e1e1e1" style="fill: var(--color1, #e1e1e1)" d="M35.781 0c2.155 0 4.191 0.52 6.107 1.561s3.472 2.537 4.67 4.488c1.15 1.951 1.725 4.25 1.725 6.894s-0.718 5.225-2.155 7.74c-0.48 0.91-1.342 2.081-2.587 3.512-1.293 1.43-2.49 2.666-3.592 3.707l-4.526 4.098-3.234-4.813c2.297-1.29 4.262-2.848 5.95-4.668l0.014-0.015c1.724-1.821 2.586-3.49 2.586-5.008 0-0.781-0.192-1.41-0.575-1.886-1.676 1.084-3.544 1.626-5.604 1.626-1.485 0-2.898-0.412-4.239-1.236-1.389-0.781-2.49-1.821-3.305-3.122-0.862-1.258-1.294-2.558-1.294-3.902 0-1.518 0.503-2.97 1.509-4.358 0.958-1.387 2.228-2.514 3.808-3.382 1.533-0.824 3.114-1.236 4.742-1.236zM9.987 0c2.155 0 4.191 0.52 6.107 1.561s3.472 2.536 4.67 4.488c1.15 1.951 1.725 4.25 1.725 6.894 0 1.864-0.264 3.534-0.79 5.008-0.527 1.518-1.437 3.1-2.73 4.748-1.246 1.561-2.419 2.862-3.52 3.902-1.102 1.084-3.018 2.883-5.748 5.398l-3.234-4.813c2.296-1.29 4.262-2.848 5.949-4.668l0.014-0.015c1.725-1.821 2.586-3.49 2.586-5.008 0-0.781-0.191-1.41-0.574-1.886-1.677 1.084-3.544 1.626-5.604 1.626-1.485 0-2.898-0.412-4.24-1.236-1.388-0.781-2.49-1.821-3.304-3.122-0.862-1.258-1.294-2.558-1.294-3.902 0-1.518 0.479-2.97 1.437-4.358s2.227-2.514 3.808-3.382c1.533-0.824 3.114-1.236 4.742-1.236z"></path>
</symbol>
<symbol id="facebook" viewBox="0 0 16 32">
<path fill="#fff" style="fill: var(--color1, #fff)" d="M14.266 15.97h-4.176v15.39h-6.328v-15.392h-3.008v-5.408h3.008v-3.498c0-2.504 1.184-6.422 6.384-6.422l4.688 0.019v5.25h-3.402c-0.557 0-1.342 0.282-1.342 1.475v3.184h4.73l-0.554 5.4z"></path>
</symbol>
<symbol id="telegram" viewBox="0 0 40 32">
<path fill="#fff" style="fill: var(--color1, #fff)" d="M16.206 20.75l-0.636 8.34c0.908 0 1.302-0.366 1.774-0.802l4.26-3.8 8.83 6.034c1.62 0.84 2.76 0.398 3.196-1.39l5.796-25.346h0.002c0.514-2.236-0.866-3.108-2.444-2.56l-34.064 12.172c-2.324 0.84-2.29 2.052-0.396 2.6l8.71 2.528 20.23-11.814c0.952-0.588 1.816-0.264 1.104 0.326l-16.362 13.712z"></path>
</symbol>
<symbol id="github" viewBox="0 0 32 32">
<path fill="#fff" style="fill: var(--color1, #fff)" d="M16 0.941c-8.272 0-15.059 6.789-15.059 15.059 0 7.059 4.954 13.47 11.53 15.059v-4.982c-0.651 0.144-1.251 0.147-1.915-0.048-0.89-0.264-1.613-0.856-2.149-1.76-0.342-0.576-0.949-1.203-1.581-1.157l-0.155-1.758c1.368-0.117 2.55 0.834 3.253 2.014 0.312 0.525 0.672 0.832 1.133 0.968 0.445 0.131 0.923 0.069 1.482-0.128 0.139-1.117 0.651-1.536 1.037-2.123-3.922-0.584-5.485-2.667-6.106-4.309-0.822-2.181-0.381-4.906 1.072-6.627 0.029-0.032 0.080-0.122 0.061-0.182-0.667-2.014 0.144-3.68 0.176-3.856 0.768 0.227 0.893-0.229 3.341 1.258l0.422 0.254c0.176 0.106 0.122 0.045 0.299 0.032 0.943-0.266 2.029-0.428 3.15-0.445l0.010-0c1.147 0.018 2.247 0.183 3.294 0.478l-0.090-0.022 0.138 0.014c-0.013-0.002 0.037-0.010 0.12-0.059 3.056-1.851 2.947-1.246 3.766-1.512 0.030 0.176 0.832 1.869 0.171 3.856-0.088 0.275 2.651 2.784 1.133 6.811-0.621 1.643-2.184 3.723-6.106 4.309 0.502 0.766 1.107 1.174 1.104 2.755v6.219c6.576-1.589 11.53-8 11.53-15.059 0-8.272-6.787-15.059-15.059-15.059z"></path>
</symbol>
<symbol id="icon-quotes" viewBox="0 0 43 32">
<path fill="#e1e1e1" style="fill: var(--color1, #e1e1e1)" d="M32.014 0c1.929 0 3.75 0.52 5.464 1.561s3.107 2.537 4.179 4.488c1.029 1.951 1.543 4.249 1.543 6.894s-0.643 5.225-1.929 7.74c-0.429 0.911-1.2 2.081-2.314 3.512-1.157 1.431-2.229 2.667-3.214 3.707l-4.050 4.098-2.893-4.813c2.014-1.257 3.793-2.818 5.336-4.683 1.543-1.821 2.314-3.491 2.314-5.008 0-0.78-0.171-1.409-0.514-1.886-1.5 1.084-3.171 1.626-5.014 1.626-1.329 0-2.593-0.412-3.793-1.236-1.243-0.78-2.229-1.821-2.957-3.122-0.771-1.258-1.157-2.558-1.157-3.902 0-1.518 0.45-2.97 1.35-4.358 0.857-1.388 1.993-2.515 3.407-3.382 1.371-0.824 2.786-1.236 4.243-1.236zM8.936 0c1.929 0 3.75 0.52 5.464 1.561s3.107 2.537 4.179 4.488c1.029 1.951 1.543 4.249 1.543 6.894 0 1.864-0.236 3.534-0.707 5.008-0.471 1.518-1.286 3.1-2.443 4.748-1.114 1.561-2.164 2.862-3.15 3.902-0.986 1.084-2.7 2.884-5.143 5.398l-2.893-4.813c2.014-1.257 3.793-2.818 5.336-4.683 1.543-1.821 2.314-3.491 2.314-5.008 0-0.78-0.171-1.409-0.514-1.886-1.5 1.084-3.171 1.626-5.014 1.626-1.329 0-2.593-0.412-3.793-1.236-1.243-0.78-2.229-1.821-2.957-3.122-0.771-1.258-1.157-2.558-1.157-3.902 0-1.518 0.429-2.97 1.286-4.358s1.993-2.515 3.407-3.382c1.371-0.824 2.786-1.236 4.243-1.236z"></path>
</symbol>
<symbol id="icon-dom" viewBox="0 0 35 32">
<path d="M32.64 15.401c0.599-0.65 0.541-1.646-0.129-2.225l-14.772-12.75c-0.671-0.578-1.745-0.566-2.402 0.027l-14.822 13.403c-0.656 0.594-0.689 1.589-0.071 2.222l0.372 0.382c0.617 0.633 1.613 0.708 2.224 0.168l1.108-0.979v14.326c0 0.879 0.722 1.591 1.612 1.591h5.778c0.89 0 1.612-0.712 1.612-1.591v-10.023h7.37v10.023c-0.013 0.878 0.624 1.59 1.515 1.59h6.123c0.89 0 1.613-0.711 1.613-1.59v-14.124c0 0 0.306 0.264 0.683 0.592s1.168 0.065 1.767-0.586l0.42-0.455z"></path>
</symbol>
<symbol id="read-more" viewBox="0 0 75 32"><path fill="#d41443" style="fill:var(--color1, #d41443)" d="M4.47 19.636v-7.127h2.617c.57 0 1.039.098 1.405.295.374.19.652.451.835.784.183.326.275.689.275 1.089 0 .434-.115.831-.346 1.191-.224.36-.577.621-1.059.784l1.476 2.983H8.176l-1.324-2.81H5.773v2.81H4.47zm1.303-3.767h1.232c.435 0 .753-.105.957-.316s.305-.489.305-.835c0-.34-.102-.611-.305-.815-.196-.204-.519-.305-.967-.305H5.773v2.271zm7.156 3.89c-.509 0-.961-.109-1.355-.326a2.368 2.368 0 0 1-.92-.905l-.006-.012c-.224-.393-.336-.849-.336-1.364 0-.523.109-.988.326-1.395.224-.407.529-.723.916-.947.393-.231.855-.346 1.385-.346.495 0 .934.109 1.313.326s.676.516.886.896c.217.373.326.791.326 1.252 0 .075-.004.153-.01.234 0 .081-.004.167-.01.255h-3.839c.027.393.163.703.407.927.252.224.553.336.906.336.265 0 .485-.058.662-.173s.315-.274.404-.462l.003-.007h1.324a2.415 2.415 0 0 1-.479.876c-.22.258-.492.464-.8.605l-.014.006a2.545 2.545 0 0 1-1.089.224zm.01-4.236c-.319 0-.601.092-.845.275-.244.177-.4.448-.468.815h2.515c-.02-.332-.143-.597-.367-.794s-.502-.295-.835-.295zm5.362 4.236c-.434 0-.791-.068-1.069-.204a1.48 1.48 0 0 1-.621-.56 1.462 1.462 0 0 1-.204-.749v-.016.001c0-.468.183-.849.55-1.14s.916-.438 1.649-.438h1.283v-.122c0-.346-.098-.601-.295-.764s-.441-.244-.733-.244a1.24 1.24 0 0 0-.692.193.797.797 0 0 0-.367.55h-1.273c.029-.364.162-.693.37-.961l-.003.004c.219-.27.5-.482.821-.616l.014-.005c.34-.149.72-.224 1.14-.224.72 0 1.287.18 1.7.54s.621.869.621 1.527v3.105h-1.11l-.122-.815a1.89 1.89 0 0 1-.624.668l-.007.004c-.265.177-.607.265-1.028.265zm.295-1.019c.374 0 .662-.122.865-.367.211-.244.343-.546.397-.906h-1.11c-.346 0-.593.065-.743.193a.567.567 0 0 0-.224.452v.006c0 .196.075.349.224.458s.346.163.591.163zm6.162 1.019a2.38 2.38 0 0 1-1.273-.346 2.491 2.491 0 0 1-.879-.934l-.006-.013c-.217-.4-.326-.855-.326-1.364s.109-.96.326-1.354a2.417 2.417 0 0 1 2.159-1.283c.38 0 .713.071.998.214s.516.343.692.601v-2.973h1.303v7.331h-1.161l-.143-.723a2.307 2.307 0 0 1-.642.585l-.01.006c-.265.169-.611.255-1.039.255zm.275-1.141c.422 0 .764-.139 1.028-.417.272-.285.407-.648.407-1.089s-.135-.801-.407-1.079c-.265-.285-.607-.428-1.028-.428-.414 0-.756.139-1.028.417s-.407.638-.407 1.079.136.804.407 1.089c.272.285.615.428 1.028.428zm6.472 1.018v-5.05h1.149l.112.682c.163-.244.377-.438.641-.58.26-.141.57-.224.899-.224h.04-.002c.78 0 1.334.302 1.66.906.186-.279.433-.503.722-.657l.011-.005a2.17 2.17 0 0 1 1.018-.244c.659 0 1.164.196 1.517.591s.529.971.529 1.731v2.851h-1.303v-2.729c0-.434-.084-.767-.255-.998-.163-.231-.417-.346-.764-.346-.353 0-.638.129-.855.387-.211.258-.316.618-.316 1.079v2.607h-1.303v-2.729c0-.434-.084-.767-.255-.998s-.431-.346-.784-.346c-.346 0-.628.129-.845.387-.211.258-.316.618-.316 1.079v2.607h-1.302zm11.959.123h-.037c-.473 0-.916-.125-1.299-.343l.013.007a2.538 2.538 0 0 1-.92-.915l-.006-.012c-.224-.4-.336-.862-.336-1.385s.115-.981.345-1.375c.231-.4.54-.713.927-.937.37-.212.814-.336 1.286-.336h.039-.002c.482 0 .916.112 1.303.336.394.224.703.536.927.937.231.393.345.852.345 1.375s-.115.984-.345 1.385c-.222.39-.537.704-.915.92l-.012.006c-.369.211-.81.336-1.281.336h-.033.002zm0-1.131c.339 0 .634-.126.886-.377.251-.258.376-.638.376-1.14s-.125-.879-.376-1.13c-.252-.258-.543-.387-.876-.387h-.01c-.35 0-.665.149-.885.386l-.001.001c-.244.251-.366.628-.366 1.13s.122.882.367 1.14c.251.251.545.377.886.377zm3.751 1.008v-5.05h1.161l.122.947a2.11 2.11 0 0 1 .734-.769l.009-.005a2.096 2.096 0 0 1 1.12-.295v1.375h-.367c-.285 0-.54.044-.764.132s-.4.241-.529.458c-.122.217-.183.519-.183.906v2.301h-1.303zm6.4.123c-.509 0-.96-.109-1.353-.326a2.371 2.371 0 0 1-.921-.905l-.006-.012c-.224-.393-.336-.849-.336-1.364 0-.523.109-.988.327-1.395.224-.407.529-.723.916-.947.393-.231.855-.346 1.385-.346.495 0 .933.109 1.313.326s.675.516.885.896c.218.373.326.791.326 1.252 0 .075-.003.153-.009.234 0 .081-.004.167-.01.255h-3.839c.027.393.162.703.407.927.251.224.553.336.906.336.265 0 .485-.058.662-.173s.315-.274.404-.462l.003-.007h1.324a2.415 2.415 0 0 1-.479.876c-.22.258-.492.464-.8.605l-.014.006c-.32.149-.683.224-1.09.224zm.011-4.236c-.32 0-.601.092-.845.275-.245.177-.401.448-.469.815h2.515c-.02-.332-.143-.597-.367-.794s-.502-.295-.834-.295z"/><path fill="none" stroke="#d41443" style="stroke:var(--color1, #d41443)" stroke-linejoin="round" stroke-linecap="round" stroke-width="1.454" d="m70.266 13.818 3.22 2.909-3.22 2.909"/></symbol>
<symbol id="arrow-short-two" viewBox="0 0 19 32">
<path fill="none" stroke="#d41443" style="stroke: var(--color1, #d41443)" stroke-linejoin="round" stroke-linecap="round" stroke-miterlimit="4" stroke-width="6.4" d="M3.2 3.2l12.8 12.8-12.8 12.8"></path>
</symbol>
<symbol id="icon-ice-cream" viewBox="0 0 32 32">
<path d="M9.389 5.459c0.042-0.701 0.208-1.366 0.506-2.003s0.685-1.181 1.165-1.642c0.475-0.452 1.036-0.821 1.654-1.078l0.036-0.013c0.597-0.255 1.292-0.403 2.021-0.403 0.008 0 0.017 0 0.025 0h-0.001c0.733 0 1.427 0.138 2.086 0.416s1.235 0.662 1.731 1.152c0.496 0.49 0.88 1.056 1.152 1.699l-0.144-0.013c-0.902 0.003-1.764 0.173-2.558 0.481l0.049-0.017c-0.426 0.165-0.789 0.349-1.132 0.563l0.028-0.016c-0.376 0.236-0.701 0.474-1.007 0.733l0.012-0.010c-0.777-0.333-1.68-0.528-2.629-0.531h-0.001c-1.088 0.004-2.117 0.255-3.034 0.7l0.042-0.018zM19.123 13.587c0.17-0.637 0.253-1.238 0.253-1.808 0-1.133-0.256-2.195-0.771-3.184s-1.213-1.808-2.099-2.461c0.856-0.618 1.927-0.989 3.084-0.989 0.009 0 0.018 0 0.027 0h-0.001c0.739 0 1.443 0.144 2.112 0.429s1.245 0.672 1.731 1.158c0.486 0.486 0.874 1.062 1.158 1.731s0.429 1.37 0.429 2.112c0 0.013 0 0.027 0 0.042 0 1.11-0.342 2.139-0.927 2.989l0.012-0.018h-5.008zM7.293 13.587c-0.224-0.627-0.339-1.229-0.339-1.808 0-0.586 0.090-1.158 0.272-1.712s0.442-1.053 0.778-1.494c0.341-0.444 0.727-0.83 1.156-1.16l0.015-0.011c0.426-0.328 0.923-0.592 1.459-0.768l0.035-0.010c0.508-0.172 1.093-0.272 1.701-0.272 0.004 0 0.008 0 0.011 0h-0.001c0.739 0 1.443 0.144 2.112 0.429s1.245 0.672 1.731 1.158c0.486 0.486 0.874 1.062 1.158 1.731s0.429 1.37 0.429 2.112c0 0.579-0.112 1.181-0.339 1.808h-10.179zM16 31.68c-0.166-0.006-0.317-0.066-0.436-0.164l0.001 0.001c-0.138-0.102-0.246-0.239-0.312-0.397l-0.002-0.006-5.258-13.907h-0.797l-1.037-2.413h15.68l-1.037 2.413h-0.797l-5.258 13.907c-0.068 0.164-0.176 0.301-0.311 0.401l-0.003 0.002c-0.118 0.097-0.269 0.157-0.434 0.163l-0.001 0z"></path>
</symbol>
<symbol id="icon-chek-border" viewBox="0 0 34 32">
<path d="M30.34 3.556v24.887h-26.547v-24.887h26.547zM30.34 0h-26.547c-2.086 0-3.793 1.6-3.793 3.556v24.887c0 1.956 1.707 3.556 3.793 3.556h26.547c2.086 0 3.793-1.6 3.793-3.556v-24.887c0-1.956-1.707-3.556-3.793-3.556z"></path>
</symbol>
<symbol id="close-modal" viewBox="0 0 32 32">
<path d="M26.667 7.303l-1.97-1.97-7.808 7.808-7.808-7.808-1.97 1.97 7.808 7.808-7.808 7.808 1.97 1.97 7.808-7.808 7.808 7.808 1.97-1.97-7.808-7.808 7.808-7.808z"></path>
</symbol>
</defs>
</svg>
